<mxfile host="app.diagrams.net" modified="2022-09-07T04:40:57.070Z" agent="5.0 (Windows NT 10.0; Win64; x64) AppleWebKit/537.36 (KHTML, like Gecko) Chrome/104.0.0.0 Safari/537.36" etag="oroHVM2LEi8E3rvGCVHI" version="20.2.8" type="github">
  <diagram id="fYepgF6CEujm1437ftod" name="Page-1">
    <mxGraphModel dx="1422" dy="705" grid="1" gridSize="10" guides="1" tooltips="1" connect="1" arrows="1" fold="1" page="1" pageScale="1" pageWidth="850" pageHeight="1100" math="0" shadow="0">
      <root>
        <mxCell id="0" />
        <mxCell id="1" parent="0" />
        <mxCell id="pEcas6hbaHr0vrHVOu-9-1" value="&lt;font style=&quot;font-size: 23px;&quot;&gt;Collection&lt;/font&gt;" style="rounded=1;whiteSpace=wrap;html=1;" vertex="1" parent="1">
          <mxGeometry x="390" y="80" width="120" height="60" as="geometry" />
        </mxCell>
        <mxCell id="pEcas6hbaHr0vrHVOu-9-2" value="List" style="rounded=1;whiteSpace=wrap;html=1;fontSize=23;" vertex="1" parent="1">
          <mxGeometry x="120" y="190" width="120" height="60" as="geometry" />
        </mxCell>
        <mxCell id="pEcas6hbaHr0vrHVOu-9-3" value="Set" style="rounded=1;whiteSpace=wrap;html=1;fontSize=23;" vertex="1" parent="1">
          <mxGeometry x="300" y="190" width="120" height="60" as="geometry" />
        </mxCell>
        <mxCell id="pEcas6hbaHr0vrHVOu-9-4" value="Queue" style="rounded=1;whiteSpace=wrap;html=1;fontSize=23;" vertex="1" parent="1">
          <mxGeometry x="470" y="190" width="120" height="60" as="geometry" />
        </mxCell>
        <mxCell id="pEcas6hbaHr0vrHVOu-9-5" value="Map" style="rounded=1;whiteSpace=wrap;html=1;fontSize=23;" vertex="1" parent="1">
          <mxGeometry x="640" y="190" width="120" height="60" as="geometry" />
        </mxCell>
        <mxCell id="pEcas6hbaHr0vrHVOu-9-6" value="" style="endArrow=classic;html=1;rounded=0;fontSize=23;exitX=0;exitY=0.5;exitDx=0;exitDy=0;entryX=0.5;entryY=0;entryDx=0;entryDy=0;" edge="1" parent="1" source="pEcas6hbaHr0vrHVOu-9-1" target="pEcas6hbaHr0vrHVOu-9-2">
          <mxGeometry width="50" height="50" relative="1" as="geometry">
            <mxPoint x="400" y="380" as="sourcePoint" />
            <mxPoint x="310" y="420" as="targetPoint" />
          </mxGeometry>
        </mxCell>
        <mxCell id="pEcas6hbaHr0vrHVOu-9-7" value="" style="endArrow=classic;html=1;rounded=0;fontSize=23;exitX=0.125;exitY=1;exitDx=0;exitDy=0;exitPerimeter=0;entryX=0.5;entryY=0;entryDx=0;entryDy=0;" edge="1" parent="1" source="pEcas6hbaHr0vrHVOu-9-1" target="pEcas6hbaHr0vrHVOu-9-3">
          <mxGeometry width="50" height="50" relative="1" as="geometry">
            <mxPoint x="400" y="380" as="sourcePoint" />
            <mxPoint x="450" y="330" as="targetPoint" />
          </mxGeometry>
        </mxCell>
        <mxCell id="pEcas6hbaHr0vrHVOu-9-8" value="" style="endArrow=classic;html=1;rounded=0;fontSize=23;exitX=0.858;exitY=1.017;exitDx=0;exitDy=0;entryX=0.5;entryY=0;entryDx=0;entryDy=0;exitPerimeter=0;" edge="1" parent="1" source="pEcas6hbaHr0vrHVOu-9-1" target="pEcas6hbaHr0vrHVOu-9-4">
          <mxGeometry width="50" height="50" relative="1" as="geometry">
            <mxPoint x="400" y="380" as="sourcePoint" />
            <mxPoint x="450" y="330" as="targetPoint" />
          </mxGeometry>
        </mxCell>
        <mxCell id="pEcas6hbaHr0vrHVOu-9-9" value="" style="endArrow=classic;html=1;rounded=0;fontSize=23;exitX=1;exitY=0.5;exitDx=0;exitDy=0;entryX=0.5;entryY=0;entryDx=0;entryDy=0;" edge="1" parent="1" source="pEcas6hbaHr0vrHVOu-9-1" target="pEcas6hbaHr0vrHVOu-9-5">
          <mxGeometry width="50" height="50" relative="1" as="geometry">
            <mxPoint x="400" y="380" as="sourcePoint" />
            <mxPoint x="450" y="330" as="targetPoint" />
          </mxGeometry>
        </mxCell>
        <mxCell id="pEcas6hbaHr0vrHVOu-9-10" value="ArrayList" style="rounded=1;whiteSpace=wrap;html=1;fontSize=23;" vertex="1" parent="1">
          <mxGeometry x="120" y="270" width="120" height="60" as="geometry" />
        </mxCell>
        <mxCell id="pEcas6hbaHr0vrHVOu-9-11" value="LinkedList" style="rounded=1;whiteSpace=wrap;html=1;fontSize=23;" vertex="1" parent="1">
          <mxGeometry x="120" y="350" width="120" height="60" as="geometry" />
        </mxCell>
        <mxCell id="pEcas6hbaHr0vrHVOu-9-12" value="Vector" style="rounded=1;whiteSpace=wrap;html=1;fontSize=23;" vertex="1" parent="1">
          <mxGeometry x="120" y="430" width="120" height="60" as="geometry" />
        </mxCell>
        <mxCell id="pEcas6hbaHr0vrHVOu-9-14" value="" style="edgeStyle=orthogonalEdgeStyle;startArrow=none;endArrow=none;rounded=0;targetPortConstraint=eastwest;sourcePortConstraint=northsouth;fontSize=23;" edge="1" target="pEcas6hbaHr0vrHVOu-9-12" parent="1">
          <mxGeometry relative="1" as="geometry">
            <mxPoint x="120" y="220" as="sourcePoint" />
            <mxPoint x="100" y="460" as="targetPoint" />
            <Array as="points">
              <mxPoint x="80" y="220" />
              <mxPoint x="80" y="460" />
            </Array>
          </mxGeometry>
        </mxCell>
        <mxCell id="pEcas6hbaHr0vrHVOu-9-17" value="" style="endArrow=none;html=1;rounded=0;fontSize=23;exitX=0;exitY=0.5;exitDx=0;exitDy=0;" edge="1" parent="1" source="pEcas6hbaHr0vrHVOu-9-10">
          <mxGeometry width="50" height="50" relative="1" as="geometry">
            <mxPoint x="400" y="380" as="sourcePoint" />
            <mxPoint x="80" y="300" as="targetPoint" />
          </mxGeometry>
        </mxCell>
        <mxCell id="pEcas6hbaHr0vrHVOu-9-18" value="" style="endArrow=none;html=1;rounded=0;fontSize=23;exitX=0;exitY=0.5;exitDx=0;exitDy=0;" edge="1" parent="1" source="pEcas6hbaHr0vrHVOu-9-11">
          <mxGeometry width="50" height="50" relative="1" as="geometry">
            <mxPoint x="130" y="310" as="sourcePoint" />
            <mxPoint x="80" y="380" as="targetPoint" />
          </mxGeometry>
        </mxCell>
        <mxCell id="pEcas6hbaHr0vrHVOu-9-19" value="HashSet" style="rounded=1;whiteSpace=wrap;html=1;fontSize=23;" vertex="1" parent="1">
          <mxGeometry x="300" y="270" width="120" height="60" as="geometry" />
        </mxCell>
        <mxCell id="pEcas6hbaHr0vrHVOu-9-20" value="&lt;font style=&quot;font-size: 17px;&quot;&gt;LinkedHashSet&lt;/font&gt;" style="rounded=1;whiteSpace=wrap;html=1;fontSize=23;" vertex="1" parent="1">
          <mxGeometry x="300" y="350" width="120" height="60" as="geometry" />
        </mxCell>
        <mxCell id="pEcas6hbaHr0vrHVOu-9-21" value="&lt;font style=&quot;font-size: 23px;&quot;&gt;TreeSet&lt;/font&gt;" style="rounded=1;whiteSpace=wrap;html=1;fontSize=17;" vertex="1" parent="1">
          <mxGeometry x="300" y="430" width="120" height="60" as="geometry" />
        </mxCell>
        <mxCell id="pEcas6hbaHr0vrHVOu-9-22" value="" style="edgeStyle=orthogonalEdgeStyle;startArrow=none;endArrow=none;rounded=0;targetPortConstraint=eastwest;sourcePortConstraint=northsouth;fontSize=23;" edge="1" parent="1">
          <mxGeometry relative="1" as="geometry">
            <mxPoint x="300" y="220" as="sourcePoint" />
            <mxPoint x="300" y="460" as="targetPoint" />
            <Array as="points">
              <mxPoint x="260" y="220" />
              <mxPoint x="260" y="460" />
            </Array>
          </mxGeometry>
        </mxCell>
        <mxCell id="pEcas6hbaHr0vrHVOu-9-26" value="" style="endArrow=none;html=1;rounded=0;fontSize=23;entryX=0;entryY=0.5;entryDx=0;entryDy=0;" edge="1" parent="1" target="pEcas6hbaHr0vrHVOu-9-20">
          <mxGeometry width="50" height="50" relative="1" as="geometry">
            <mxPoint x="260" y="380" as="sourcePoint" />
            <mxPoint x="100" y="320" as="targetPoint" />
          </mxGeometry>
        </mxCell>
        <mxCell id="pEcas6hbaHr0vrHVOu-9-27" value="" style="endArrow=none;html=1;rounded=0;fontSize=23;exitX=0;exitY=0.5;exitDx=0;exitDy=0;" edge="1" parent="1" source="pEcas6hbaHr0vrHVOu-9-19">
          <mxGeometry width="50" height="50" relative="1" as="geometry">
            <mxPoint x="150" y="330" as="sourcePoint" />
            <mxPoint x="260" y="300" as="targetPoint" />
          </mxGeometry>
        </mxCell>
        <mxCell id="pEcas6hbaHr0vrHVOu-9-28" value="LinkedList" style="rounded=1;whiteSpace=wrap;html=1;fontSize=23;" vertex="1" parent="1">
          <mxGeometry x="470" y="270" width="120" height="60" as="geometry" />
        </mxCell>
        <mxCell id="pEcas6hbaHr0vrHVOu-9-29" value="&lt;font style=&quot;font-size: 17px;&quot;&gt;PriorityQueue&lt;/font&gt;" style="rounded=1;whiteSpace=wrap;html=1;fontSize=23;" vertex="1" parent="1">
          <mxGeometry x="470" y="350" width="120" height="60" as="geometry" />
        </mxCell>
        <mxCell id="pEcas6hbaHr0vrHVOu-9-30" value="&lt;font style=&quot;font-size: 23px;&quot;&gt;Dequeue&lt;/font&gt;" style="rounded=1;whiteSpace=wrap;html=1;fontSize=17;" vertex="1" parent="1">
          <mxGeometry x="470" y="430" width="120" height="60" as="geometry" />
        </mxCell>
        <mxCell id="pEcas6hbaHr0vrHVOu-9-31" value="" style="edgeStyle=orthogonalEdgeStyle;startArrow=none;endArrow=none;rounded=0;targetPortConstraint=eastwest;sourcePortConstraint=northsouth;fontSize=23;" edge="1" parent="1">
          <mxGeometry relative="1" as="geometry">
            <mxPoint x="470" y="220" as="sourcePoint" />
            <mxPoint x="470" y="460" as="targetPoint" />
            <Array as="points">
              <mxPoint x="430" y="220" />
              <mxPoint x="430" y="460" />
            </Array>
          </mxGeometry>
        </mxCell>
        <mxCell id="pEcas6hbaHr0vrHVOu-9-32" value="" style="endArrow=none;html=1;rounded=0;fontSize=23;entryX=0;entryY=0.5;entryDx=0;entryDy=0;" edge="1" parent="1" target="pEcas6hbaHr0vrHVOu-9-29">
          <mxGeometry width="50" height="50" relative="1" as="geometry">
            <mxPoint x="430" y="380" as="sourcePoint" />
            <mxPoint x="270" y="320" as="targetPoint" />
          </mxGeometry>
        </mxCell>
        <mxCell id="pEcas6hbaHr0vrHVOu-9-33" value="" style="endArrow=none;html=1;rounded=0;fontSize=23;exitX=0;exitY=0.5;exitDx=0;exitDy=0;" edge="1" parent="1" source="pEcas6hbaHr0vrHVOu-9-28">
          <mxGeometry width="50" height="50" relative="1" as="geometry">
            <mxPoint x="320" y="330" as="sourcePoint" />
            <mxPoint x="430" y="300" as="targetPoint" />
          </mxGeometry>
        </mxCell>
        <mxCell id="pEcas6hbaHr0vrHVOu-9-34" value="HashMap" style="rounded=1;whiteSpace=wrap;html=1;fontSize=23;" vertex="1" parent="1">
          <mxGeometry x="640" y="270" width="120" height="60" as="geometry" />
        </mxCell>
        <mxCell id="pEcas6hbaHr0vrHVOu-9-35" value="&lt;font style=&quot;font-size: 23px;&quot;&gt;HashTable&lt;/font&gt;" style="rounded=1;whiteSpace=wrap;html=1;fontSize=23;" vertex="1" parent="1">
          <mxGeometry x="640" y="350" width="120" height="60" as="geometry" />
        </mxCell>
        <mxCell id="pEcas6hbaHr0vrHVOu-9-36" value="&lt;font style=&quot;font-size: 23px;&quot;&gt;TreeMap&lt;/font&gt;" style="rounded=1;whiteSpace=wrap;html=1;fontSize=17;" vertex="1" parent="1">
          <mxGeometry x="640" y="430" width="120" height="60" as="geometry" />
        </mxCell>
        <mxCell id="pEcas6hbaHr0vrHVOu-9-37" value="" style="edgeStyle=orthogonalEdgeStyle;startArrow=none;endArrow=none;rounded=0;targetPortConstraint=eastwest;sourcePortConstraint=northsouth;fontSize=23;" edge="1" parent="1">
          <mxGeometry relative="1" as="geometry">
            <mxPoint x="640" y="220" as="sourcePoint" />
            <mxPoint x="640" y="460" as="targetPoint" />
            <Array as="points">
              <mxPoint x="600" y="220" />
              <mxPoint x="600" y="460" />
            </Array>
          </mxGeometry>
        </mxCell>
        <mxCell id="pEcas6hbaHr0vrHVOu-9-38" value="" style="endArrow=none;html=1;rounded=0;fontSize=23;entryX=0;entryY=0.5;entryDx=0;entryDy=0;" edge="1" parent="1" target="pEcas6hbaHr0vrHVOu-9-35">
          <mxGeometry width="50" height="50" relative="1" as="geometry">
            <mxPoint x="600" y="380" as="sourcePoint" />
            <mxPoint x="440" y="320" as="targetPoint" />
          </mxGeometry>
        </mxCell>
        <mxCell id="pEcas6hbaHr0vrHVOu-9-39" value="" style="endArrow=none;html=1;rounded=0;fontSize=23;exitX=0;exitY=0.5;exitDx=0;exitDy=0;" edge="1" parent="1" source="pEcas6hbaHr0vrHVOu-9-34">
          <mxGeometry width="50" height="50" relative="1" as="geometry">
            <mxPoint x="490" y="330" as="sourcePoint" />
            <mxPoint x="600" y="300" as="targetPoint" />
          </mxGeometry>
        </mxCell>
      </root>
    </mxGraphModel>
  </diagram>
</mxfile>
